<?xml version="1.0" encoding="UTF-8" ?>
<!DOCTYPE svg PUBLIC "-//W3C//DTD SVG 1.1//EN" "http://www.w3.org/Graphics/SVG/1.1/DTD/svg11.dtd">
<svg width="811pt" height="243pt" viewBox="0 0 811 243" version="1.1" xmlns="http://www.w3.org/2000/svg">
<g id="#09c1a9ff">
<path fill="#09c1a9" opacity="1.00" d=" M 50.22 39.29 C 68.19 22.43 92.43 12.76 116.97 11.58 C 140.90 11.06 165.21 18.11 184.26 32.84 C 188.21 36.00 193.44 39.25 193.71 44.88 C 194.50 51.00 189.08 56.88 182.97 56.85 C 178.37 57.35 174.91 53.80 171.67 51.12 C 156.60 39.22 137.16 33.13 118.01 33.76 C 95.76 34.60 74.27 45.03 59.33 61.43 C 44.75 77.92 36.03 99.46 34.97 121.44 C 34.19 158.32 59.94 193.90 94.98 205.19 C 109.88 209.91 126.40 210.82 141.25 205.43 C 143.76 204.50 146.44 204.25 148.99 203.45 C 161.43 197.77 175.58 196.63 189.03 198.31 C 193.20 198.70 197.34 199.43 201.54 199.69 C 199.29 193.67 197.62 187.36 197.30 180.93 C 197.21 174.52 203.83 169.37 210.03 170.26 C 213.37 170.76 216.53 172.90 218.04 175.97 C 219.62 179.13 219.57 182.76 220.42 186.14 C 222.44 194.83 226.81 202.78 232.10 209.90 C 234.64 213.25 235.68 217.99 233.60 221.84 C 231.17 227.00 224.75 229.01 219.49 227.42 C 208.69 223.76 197.44 221.61 186.18 219.94 C 178.70 219.57 171.00 219.21 163.77 221.54 C 151.58 224.80 139.87 230.56 127.05 230.83 C 97.17 233.35 66.87 221.30 45.85 200.14 C 27.79 182.41 15.79 158.32 13.38 133.06 C 12.82 122.07 12.91 110.93 15.56 100.19 C 21.04 77.21 32.52 55.19 50.22 39.29 Z" />
<path fill="#09c1a9" opacity="1.00" d=" M 417.22 68.14 C 421.32 68.18 425.42 68.17 429.52 68.15 C 429.46 92.57 429.54 116.99 429.47 141.41 C 425.41 141.53 421.34 141.65 417.28 141.30 C 417.28 116.91 417.39 92.52 417.22 68.14 Z" />
<path fill="#09c1a9" opacity="1.00" d=" M 748.22 68.17 C 752.34 68.17 756.47 68.14 760.60 68.23 C 760.51 87.47 760.33 106.73 760.71 125.96 C 762.48 130.48 768.20 129.09 772.05 129.30 C 778.35 128.86 785.01 130.39 791.05 128.11 C 791.50 126.82 792.29 125.59 792.26 124.18 C 792.36 117.94 792.32 111.69 792.21 105.45 C 791.48 104.55 790.76 103.65 790.08 102.75 C 782.27 101.58 774.35 102.48 766.51 102.20 C 766.26 102.02 765.78 101.65 765.54 101.47 C 765.26 97.71 765.53 93.94 765.39 90.18 C 772.93 90.17 780.47 90.15 788.01 90.16 C 793.85 89.93 799.31 93.60 802.25 98.50 C 805.05 104.22 804.42 110.77 804.52 116.94 C 804.54 122.82 804.65 129.23 801.26 134.33 C 798.32 139.12 792.53 141.58 787.06 141.52 C 780.03 141.50 773.01 141.52 765.99 141.51 C 759.75 141.55 753.23 138.40 750.37 132.67 C 747.98 128.17 748.29 122.93 748.28 118.00 C 748.27 101.39 748.40 84.78 748.22 68.17 Z" />
<path fill="#09c1a9" opacity="1.00" d=" M 346.18 89.93 C 346.20 81.81 352.43 73.62 360.92 73.27 C 376.23 72.99 391.55 73.32 406.86 73.10 C 406.80 77.27 406.87 81.43 406.74 85.59 C 391.37 85.42 375.99 85.47 360.63 85.58 C 357.28 88.02 358.45 92.46 358.22 95.99 C 358.36 106.37 357.73 116.79 358.70 127.13 C 359.69 127.83 360.67 128.53 361.66 129.25 C 376.72 129.33 391.78 129.37 406.84 129.22 C 406.83 133.32 406.82 137.43 406.83 141.53 C 393.22 141.48 379.61 141.51 366.00 141.53 C 362.63 141.64 359.18 141.36 356.07 139.95 C 350.23 137.47 346.11 131.41 346.23 125.02 C 346.09 113.33 346.18 101.63 346.18 89.93 Z" />
<path fill="#09c1a9" opacity="1.00" d=" M 559.22 73.14 C 563.40 73.18 567.58 73.18 571.77 73.15 C 571.60 78.83 571.71 84.52 571.68 90.20 C 578.75 90.09 585.82 90.25 592.89 90.11 C 592.80 94.14 592.82 98.17 592.83 102.20 C 585.79 102.22 578.74 102.17 571.70 102.21 C 571.70 115.17 571.62 128.13 571.73 141.08 C 567.60 141.76 563.40 141.71 559.28 141.12 C 559.28 128.15 559.38 115.17 559.22 102.19 C 554.05 102.19 548.87 102.19 543.70 102.22 C 543.31 98.23 543.50 94.22 543.42 90.21 C 548.71 90.14 554.00 90.15 559.30 90.21 C 559.28 84.52 559.36 78.83 559.22 73.14 Z" />
<path fill="#09c1a9" opacity="1.00" d=" M 602.23 73.14 C 606.35 73.18 610.47 73.15 614.60 73.23 C 614.42 82.55 614.49 91.88 614.54 101.21 C 628.79 101.13 643.05 101.14 657.30 101.20 C 657.25 91.85 657.39 82.49 657.22 73.14 C 661.22 73.18 665.21 73.17 669.21 73.16 C 669.14 95.94 669.27 118.71 669.15 141.49 C 665.20 141.52 661.25 141.49 657.31 141.51 C 657.30 132.17 657.27 122.84 657.33 113.50 C 643.05 113.52 628.78 113.54 614.50 113.50 C 614.40 122.82 614.69 132.15 614.34 141.47 C 610.32 141.51 606.30 141.58 602.29 141.40 C 602.27 118.65 602.38 95.90 602.23 73.14 Z" />
<path fill="#09c1a9" opacity="1.00" d=" M 194.79 95.91 C 194.62 93.06 196.95 90.21 199.88 90.20 C 207.95 90.12 216.03 90.15 224.11 90.19 C 227.58 90.14 230.59 92.10 233.73 93.28 C 233.74 92.50 233.75 90.95 233.75 90.17 C 240.40 90.30 247.07 89.89 253.70 90.37 C 258.54 91.59 263.29 94.63 265.37 99.32 C 267.10 102.94 267.03 107.06 267.17 110.98 C 267.18 120.74 267.28 130.51 267.12 140.28 C 266.92 140.56 266.52 141.12 266.32 141.40 C 262.65 141.71 258.96 141.41 255.28 141.51 C 255.03 130.28 255.24 119.05 255.16 107.83 C 255.32 105.88 254.02 104.31 253.21 102.67 C 248.60 102.05 243.95 102.12 239.32 102.25 C 240.06 115.11 239.60 128.04 239.59 140.92 C 235.96 142.25 231.46 141.22 227.51 141.43 C 227.36 129.21 227.64 116.98 227.37 104.77 C 226.93 104.25 226.06 103.23 225.63 102.71 C 219.35 101.80 213.00 102.28 206.69 102.23 C 206.69 115.28 206.67 128.32 206.70 141.36 C 202.72 141.60 198.74 141.55 194.77 141.37 C 194.79 126.22 194.73 111.07 194.79 95.91 Z" />
<path fill="#09c1a9" opacity="1.00" d=" M 278.10 90.11 C 282.14 90.19 286.17 90.17 290.21 90.16 C 290.44 102.54 289.69 114.95 290.62 127.30 C 291.65 127.94 292.68 128.59 293.71 129.25 C 301.42 129.31 309.13 129.37 316.84 129.22 C 316.82 133.32 316.82 137.42 316.83 141.52 C 309.21 141.46 301.58 141.60 293.97 141.45 C 285.89 141.04 278.42 134.38 278.24 126.08 C 278.02 114.09 278.30 102.10 278.10 90.11 Z" />
<path fill="#09c1a9" opacity="1.00" d=" M 322.11 90.10 C 326.03 90.20 329.95 90.19 333.88 90.11 C 333.78 109.42 333.86 128.73 333.82 148.05 C 333.90 156.34 326.33 163.71 318.10 163.76 C 310.44 163.96 302.77 163.71 295.11 163.87 C 295.19 159.71 295.14 155.55 295.23 151.39 C 302.84 151.50 310.47 151.58 318.08 151.38 C 320.57 151.67 321.30 148.84 322.22 147.12 C 322.05 128.12 322.28 109.11 322.11 90.10 Z" />
<path fill="#09c1a9" opacity="1.00" d=" M 434.37 90.14 C 441.91 90.21 449.44 90.14 456.98 90.16 C 462.87 89.93 468.42 93.59 471.31 98.59 C 473.15 102.07 473.41 106.13 473.51 109.99 C 473.49 120.49 473.52 130.99 473.47 141.48 C 469.42 141.52 465.38 141.50 461.34 141.53 C 461.15 129.39 461.52 117.24 461.15 105.11 C 460.47 104.31 459.81 103.50 459.15 102.69 C 451.04 101.71 442.86 102.37 434.72 102.22 C 434.30 98.20 434.51 94.16 434.37 90.14 Z" />
<path fill="#09c1a9" opacity="1.00" d=" M 493.23 90.13 C 502.85 90.26 512.48 90.05 522.11 90.23 C 529.18 90.70 535.29 96.52 536.31 103.52 C 537.10 109.31 536.48 115.18 536.71 121.01 C 536.90 126.54 535.95 132.70 531.74 136.68 C 528.79 139.91 524.36 141.44 520.05 141.49 C 513.03 141.56 506.01 141.47 499.00 141.52 C 494.14 141.56 489.07 139.87 485.77 136.19 C 479.28 129.40 480.09 117.26 487.24 111.23 C 490.14 108.61 494.11 107.37 497.98 107.35 C 505.26 107.18 512.55 107.42 519.84 107.23 C 519.82 111.23 519.83 115.22 519.83 119.21 C 512.16 119.31 504.49 118.96 496.84 119.35 C 494.82 119.34 493.91 121.37 492.74 122.64 C 492.74 123.55 492.74 125.37 492.74 126.28 C 494.13 127.95 495.58 129.92 498.04 129.69 C 506.24 129.58 514.54 130.43 522.67 129.14 C 524.96 127.51 525.55 124.62 525.34 121.98 C 525.14 116.94 525.44 111.89 525.25 106.85 C 525.16 104.19 522.88 101.58 520.10 101.75 C 511.16 101.59 502.22 101.71 493.27 101.72 C 493.32 97.86 493.32 93.99 493.23 90.13 Z" />
<path fill="#09c1a9" opacity="1.00" d=" M 681.22 90.14 C 685.22 90.18 689.22 90.16 693.22 90.16 C 693.29 99.81 692.96 109.46 693.38 119.09 C 693.18 124.27 697.73 128.97 702.85 129.17 C 710.30 129.49 717.75 129.20 725.20 129.30 C 725.08 116.23 725.26 103.17 725.11 90.11 C 729.14 90.20 733.17 90.17 737.21 90.16 C 737.17 105.03 737.21 119.90 737.19 134.77 C 737.30 137.94 735.19 141.21 731.83 141.45 C 722.91 141.62 713.97 141.42 705.04 141.54 C 697.39 141.77 689.51 138.32 685.08 131.97 C 682.56 128.14 681.29 123.53 681.30 118.97 C 681.25 109.36 681.39 99.75 681.22 90.14 Z" />
<path fill="#09c1a9" opacity="1.00" d=" M 73.48 116.39 C 76.09 114.16 79.65 114.16 82.86 113.60 C 86.69 114.74 90.39 116.82 92.42 120.39 C 95.77 126.35 93.64 135.00 87.31 138.08 C 81.65 141.41 73.76 139.23 70.33 133.70 C 66.63 128.26 68.15 120.21 73.48 116.39 Z" />
<path fill="#09c1a9" opacity="1.00" d=" M 160.62 113.95 C 168.40 112.84 176.09 120.23 174.80 128.12 C 174.30 136.65 164.03 142.47 156.48 138.36 C 148.92 135.20 146.70 124.27 152.30 118.34 C 154.34 115.81 157.38 114.21 160.62 113.95 Z" />
<path fill="#09c1a9" opacity="1.00" d=" M 117.40 114.51 C 120.99 113.91 125.23 113.70 128.34 115.92 C 135.56 119.72 136.62 131.15 130.21 136.25 C 124.31 142.22 113.19 139.86 109.95 132.21 C 106.55 125.56 110.36 116.81 117.40 114.51 Z" />
</g>
</svg>
