<?xml version="1.0" encoding="UTF-8" ?>
<!DOCTYPE svg PUBLIC "-//W3C//DTD SVG 1.1//EN" "http://www.w3.org/Graphics/SVG/1.1/DTD/svg11.dtd">
<svg width="662pt" height="192pt" viewBox="0 0 662 192" version="1.1" xmlns="http://www.w3.org/2000/svg">
<g id="#09c1aaff">
<path fill="#09c1aa" opacity="1.00" d=" M 63.75 15.78 C 89.94 7.24 120.41 13.75 140.91 32.12 C 144.60 35.04 144.71 41.14 141.22 44.26 C 138.25 47.56 132.68 47.54 129.48 44.56 C 118.90 35.28 105.16 29.99 91.18 28.95 C 70.44 27.80 49.80 37.93 37.24 54.35 C 28.30 66.36 22.71 80.92 21.86 95.91 C 21.24 123.19 39.35 149.59 64.74 159.38 C 74.07 163.00 84.27 164.26 94.20 163.09 C 104.37 161.48 113.66 156.30 123.96 155.27 C 132.46 154.12 141.08 155.14 149.50 156.43 C 147.57 150.75 146.57 144.82 146.11 138.85 C 148.43 136.97 150.44 134.31 153.56 133.81 C 158.25 133.00 162.99 136.77 163.35 141.51 C 164.33 149.13 167.55 156.34 172.05 162.53 C 173.35 164.35 174.80 166.25 175.01 168.56 C 175.83 173.17 171.88 178.37 167.00 177.88 C 163.79 178.13 160.90 176.60 157.89 175.81 C 147.55 173.13 136.86 170.75 126.12 172.01 C 119.94 172.95 114.05 175.12 108.13 177.07 C 92.09 182.59 74.25 181.04 58.57 175.05 C 25.59 162.53 2.35 127.36 5.28 91.96 C 7.40 68.75 18.37 45.93 36.42 30.94 C 36.34 30.49 36.18 29.59 36.10 29.14 C 36.53 29.26 37.39 29.51 37.82 29.63 C 45.68 23.72 54.31 18.71 63.75 15.78 Z" />
<path fill="#09c1aa" opacity="1.00" d=" M 365.28 66.10 C 368.14 64.73 371.22 63.96 374.30 63.23 C 374.26 67.92 373.94 72.63 374.41 77.31 C 381.49 75.91 388.83 76.23 395.92 77.45 C 399.44 78.14 402.60 81.24 402.63 84.96 C 402.80 92.60 402.62 100.26 402.70 107.91 C 399.88 108.90 397.02 109.78 394.23 110.86 C 393.04 102.07 394.42 93.18 393.49 84.40 C 392.42 80.93 387.82 82.00 385.05 81.79 C 381.67 82.19 377.28 80.66 374.75 83.59 C 373.43 90.65 374.58 97.89 374.17 105.02 C 374.73 109.89 368.48 109.40 365.36 110.80 C 365.19 95.90 365.32 81.00 365.28 66.10 Z" />
<path fill="#09c1aa" opacity="1.00" d=" M 470.31 65.66 C 473.17 64.82 476.02 63.91 478.86 62.96 C 478.82 67.45 478.77 71.95 478.87 76.44 C 482.66 76.50 486.45 76.39 490.23 76.55 C 489.37 78.46 488.19 80.20 486.89 81.84 C 484.19 81.83 481.50 81.84 478.81 81.81 C 478.84 90.53 478.82 99.25 478.83 107.97 C 475.97 109.02 473.03 109.81 470.21 110.97 C 470.13 101.25 470.15 91.52 470.19 81.80 C 466.24 81.83 462.29 81.84 458.34 81.84 C 459.60 79.99 460.89 78.16 462.31 76.43 C 464.94 76.46 467.58 76.48 470.22 76.47 C 470.13 72.87 470.10 69.26 470.31 65.66 Z" />
<path fill="#09c1aa" opacity="1.00" d=" M 501.47 65.51 C 504.22 64.71 506.97 63.87 509.72 63.03 C 509.68 70.11 509.69 77.19 509.71 84.28 C 518.57 84.31 527.43 84.29 536.29 84.28 C 536.29 78.23 536.31 72.18 536.26 66.13 C 539.05 64.70 542.09 63.92 545.11 63.13 C 545.20 77.80 545.27 92.47 545.10 107.12 C 543.07 109.73 539.24 109.64 536.36 110.78 C 536.20 103.75 536.34 96.72 536.30 89.70 C 527.43 89.69 518.56 89.67 509.69 89.71 C 509.69 95.77 509.68 101.83 509.71 107.88 C 506.82 108.91 503.90 109.83 500.99 110.78 C 500.51 99.86 500.87 88.91 500.75 77.98 C 500.95 73.83 500.28 69.56 501.47 65.51 Z" />
<path fill="#09c1aa" opacity="1.00" d=" M 614.26 66.11 C 617.02 64.73 620.00 63.91 622.97 63.10 C 623.40 67.70 623.08 72.33 623.17 76.94 C 630.60 76.31 638.19 75.98 645.51 77.65 C 649.12 78.65 651.77 82.17 651.51 85.95 C 651.39 91.43 651.84 96.95 651.23 102.41 C 650.20 107.92 643.83 109.52 639.02 109.53 C 632.52 109.26 625.80 110.37 619.51 108.31 C 616.45 107.32 614.11 104.29 614.30 101.04 C 614.26 89.39 614.33 77.75 614.26 66.11 M 623.63 82.85 C 622.50 85.76 622.85 88.90 622.83 91.95 C 622.91 95.76 622.44 99.64 623.53 103.36 C 629.11 105.34 635.16 104.28 640.94 104.17 C 644.11 100.54 642.13 95.33 642.70 90.98 C 642.34 87.93 643.96 82.86 639.79 81.96 C 635.11 81.59 630.40 81.86 625.71 81.83 C 625.19 82.08 624.15 82.60 623.63 82.85 Z" />
<path fill="#09c1aa" opacity="1.00" d=" M 151.77 67.81 C 155.91 64.27 161.81 64.45 166.95 64.30 C 174.55 64.52 182.65 63.25 189.68 66.88 C 196.95 63.26 205.23 64.51 213.04 64.29 C 218.03 64.44 223.62 64.46 227.72 67.74 C 230.16 69.64 230.67 73.05 230.71 75.95 C 230.68 86.60 230.69 97.25 230.69 107.90 C 227.82 108.93 224.91 109.86 222.01 110.81 C 221.37 98.51 222.15 86.16 221.52 73.85 C 221.37 71.26 218.51 69.71 216.14 69.76 C 210.74 69.59 205.33 69.69 199.92 69.74 C 197.94 69.56 196.36 70.88 194.76 71.82 C 193.23 83.80 195.01 95.95 193.81 107.97 C 191.09 109.19 188.23 110.02 185.36 110.80 C 185.15 98.82 185.40 86.84 185.25 74.86 C 185.48 72.05 182.83 69.64 180.09 69.77 C 174.35 69.62 168.61 69.61 162.87 69.78 C 160.62 69.60 159.01 71.30 157.71 72.88 C 157.68 84.55 157.69 96.23 157.71 107.90 C 154.83 108.94 151.92 109.86 149.02 110.81 C 148.45 100.23 148.95 89.62 148.75 79.03 C 148.86 75.21 148.39 70.47 151.77 67.81 Z" />
<path fill="#09c1aa" opacity="1.00" d=" M 309.12 65.48 C 315.92 63.64 323.04 64.48 329.99 64.30 C 335.62 64.48 342.71 64.57 346.08 69.92 C 347.10 72.28 347.87 75.25 346.75 77.70 C 344.42 79.69 341.08 79.77 338.30 80.86 C 338.19 77.53 338.90 73.89 337.04 70.90 C 330.98 68.59 324.30 70.12 317.97 69.69 C 314.67 69.19 310.60 71.05 310.77 74.86 C 310.69 83.32 310.49 91.81 310.89 100.26 C 311.53 104.01 316.00 104.37 319.05 104.30 C 325.01 104.00 331.20 105.17 336.95 103.14 C 338.39 100.91 338.31 98.21 338.55 95.66 C 341.40 94.78 344.26 93.92 347.14 93.13 C 347.05 97.50 348.16 103.09 344.18 106.16 C 339.75 109.86 333.47 109.51 328.04 109.53 C 321.08 109.23 313.76 110.51 307.16 107.71 C 303.51 106.11 301.73 102.15 301.94 98.32 C 301.91 90.21 301.54 82.07 302.08 73.98 C 301.86 69.83 305.34 66.47 309.12 65.48 Z" />
<path fill="#09c1aa" opacity="1.00" d=" M 246.51 78.21 C 249.36 77.13 252.30 76.28 255.22 75.39 C 255.96 84.63 255.08 93.92 255.74 103.16 C 261.04 105.27 266.86 103.92 272.41 104.29 C 273.11 103.67 273.78 103.03 274.43 102.36 C 275.55 94.41 273.96 86.22 275.18 78.32 C 277.73 76.93 280.66 76.43 283.37 75.39 C 284.11 87.91 283.49 100.50 283.68 113.05 C 284.15 117.94 279.26 121.09 274.92 121.48 C 266.95 122.19 258.94 121.62 250.96 121.88 C 252.23 120.06 253.52 118.26 254.85 116.50 C 261.36 115.95 268.21 117.69 274.45 115.35 C 274.65 113.30 274.81 111.23 274.91 109.17 C 268.27 109.55 261.55 109.92 254.94 109.12 C 250.76 108.74 246.61 105.53 246.51 101.09 C 246.42 93.47 246.42 85.84 246.51 78.21 Z" />
<path fill="#09c1aa" opacity="1.00" d=" M 589.29 78.18 C 592.16 77.14 595.11 76.30 598.08 75.57 C 598.21 84.53 598.33 93.51 598.05 102.46 C 597.18 107.95 590.75 109.44 586.04 109.51 C 579.51 109.26 572.75 110.39 566.43 108.31 C 563.32 107.36 560.93 104.35 561.19 101.03 C 561.11 93.40 561.19 85.78 561.17 78.16 C 564.02 77.13 566.91 76.21 569.84 75.40 C 569.76 84.08 569.96 92.75 569.72 101.42 C 570.63 102.48 571.36 104.17 573.00 104.17 C 577.03 104.42 581.08 104.34 585.12 104.23 C 586.75 104.39 588.00 103.25 589.31 102.48 C 589.28 94.38 589.29 86.28 589.29 78.18 Z" />
<path fill="#09c1aa" opacity="1.00" d=" M 425.32 76.57 C 431.51 76.26 437.81 76.29 443.92 77.50 C 447.49 78.25 450.38 81.42 450.41 85.14 C 450.60 92.75 450.60 100.37 450.39 107.98 C 447.97 108.81 445.55 109.62 443.10 110.34 C 441.80 109.81 440.50 109.11 439.05 109.36 C 432.73 109.40 426.23 110.25 420.06 108.52 C 417.11 107.72 414.35 105.29 414.25 102.07 C 414.22 98.37 413.35 94.07 415.94 90.99 C 418.40 88.24 422.39 87.86 425.85 87.52 C 431.09 87.45 436.42 87.05 441.56 88.33 C 441.44 86.10 441.95 82.65 438.94 82.26 C 432.97 81.28 426.85 82.05 420.82 81.87 C 422.17 80.02 423.17 77.62 425.32 76.57 M 424.84 92.83 C 424.17 93.51 423.49 94.20 422.82 94.89 C 422.80 97.29 422.79 99.69 422.81 102.09 C 423.47 102.79 424.14 103.49 424.80 104.19 C 429.67 104.53 434.56 104.57 439.44 104.26 C 442.82 101.67 442.75 95.44 439.50 92.74 C 434.62 92.91 429.73 92.71 424.84 92.83 Z" />
<path fill="#09c1aa" opacity="1.00" d=" M 55.53 90.63 C 62.73 88.93 69.79 97.02 66.59 103.88 C 64.24 111.21 53.16 112.48 49.22 105.89 C 45.02 100.41 48.81 91.67 55.53 90.63 Z" />
<path fill="#09c1aa" opacity="1.00" d=" M 86.46 90.64 C 93.66 88.96 100.75 97.03 97.58 103.90 C 95.21 111.24 84.12 112.47 80.20 105.87 C 76.07 100.37 79.64 91.65 86.46 90.64 Z" />
<path fill="#09c1aa" opacity="1.00" d=" M 117.54 90.63 C 124.32 89.09 131.04 96.23 128.89 102.92 C 127.29 110.86 115.38 112.91 111.24 105.93 C 107.00 100.44 110.79 91.68 117.54 90.63 Z" />
</g>
</svg>
