<?xml version="1.0" encoding="UTF-8" ?>
<!DOCTYPE svg PUBLIC "-//W3C//DTD SVG 1.1//EN" "http://www.w3.org/Graphics/SVG/1.1/DTD/svg11.dtd">
<svg width="811pt" height="243pt" viewBox="0 0 811 243" version="1.1" xmlns="http://www.w3.org/2000/svg">
<g id="#ffffffff">
<path fill="#ffffff" opacity="1.00" d=" M 69.39 26.34 C 86.16 16.83 105.51 11.32 124.86 12.28 C 132.11 12.78 139.31 13.89 146.40 15.49 C 155.66 17.69 164.31 21.82 172.68 26.27 C 178.43 29.32 183.30 33.70 188.76 37.22 C 191.42 38.92 192.36 42.19 193.11 45.08 C 193.22 50.63 188.49 55.81 182.99 56.32 C 176.79 55.73 172.96 50.13 167.97 47.07 C 161.21 42.79 153.95 39.18 146.26 36.91 C 139.91 35.50 133.59 33.51 127.01 33.61 C 119.25 33.61 111.40 33.19 103.76 34.89 C 94.24 37.01 84.92 40.45 76.69 45.75 C 72.70 48.29 68.58 50.82 65.44 54.42 C 62.53 57.86 58.65 60.30 55.91 63.89 C 45.59 76.77 38.73 92.34 35.70 108.54 C 33.90 121.39 33.96 134.76 37.85 147.24 C 38.78 150.46 39.70 153.74 41.42 156.65 C 47.00 166.11 52.45 175.88 60.45 183.55 C 66.74 190.14 74.20 195.57 82.18 199.94 C 85.14 201.60 87.93 203.59 91.12 204.79 C 104.60 209.70 119.36 210.51 133.48 208.37 C 142.66 206.41 151.42 202.92 160.43 200.34 C 173.85 196.80 187.88 198.33 201.40 200.33 C 201.99 196.58 199.95 193.17 199.27 189.58 C 198.46 185.35 196.98 180.82 198.63 176.62 C 202.17 172.63 207.99 169.09 213.36 171.64 C 215.43 173.31 217.02 175.59 218.00 178.06 C 219.24 181.81 219.36 185.83 220.52 189.60 C 222.35 195.58 224.94 201.37 228.58 206.48 C 230.73 209.76 233.45 212.97 233.99 216.99 C 233.74 223.39 226.69 229.13 220.39 226.77 C 211.59 224.14 202.69 221.82 193.59 220.48 C 187.17 219.07 180.58 219.10 174.06 219.29 C 166.61 219.48 159.40 221.69 152.53 224.43 C 146.99 225.96 141.55 227.87 135.94 229.10 C 117.16 232.73 97.43 229.70 80.00 222.11 C 75.01 220.19 69.82 218.62 65.40 215.53 C 57.54 210.30 49.35 204.91 43.98 196.96 C 41.49 193.80 38.44 191.12 36.19 187.77 C 30.73 179.96 25.23 172.00 21.87 163.02 C 19.72 157.64 17.47 152.26 16.34 146.55 C 15.47 141.69 13.21 137.08 13.37 132.06 C 13.51 124.85 12.88 117.55 14.38 110.43 C 17.15 91.71 24.36 73.72 35.08 58.16 C 37.37 54.46 40.42 51.31 42.59 47.53 C 45.59 42.34 50.60 38.72 55.54 35.52 C 60.26 32.61 64.52 29.01 69.39 26.34 Z" />
<path fill="#ffffff" opacity="1.00" d=" M 417.63 68.63 C 421.35 68.37 425.08 68.32 428.82 68.29 C 428.84 92.47 428.81 116.64 428.83 140.81 C 425.08 140.88 421.31 141.02 417.60 140.38 C 417.91 132.59 417.71 124.79 417.77 117.00 C 417.69 100.88 417.93 84.75 417.63 68.63 Z" />
<path fill="#ffffff" opacity="1.00" d=" M 748.63 68.64 C 752.36 68.36 756.10 68.31 759.84 68.30 C 759.82 82.87 759.82 97.43 759.84 112.00 C 759.91 117.82 759.11 123.92 761.63 129.38 C 771.24 130.06 780.90 129.86 790.52 129.51 C 791.18 128.85 791.85 128.19 792.52 127.53 C 792.98 119.48 792.78 111.42 792.61 103.36 C 791.11 102.78 789.63 102.12 788.05 101.84 C 780.67 101.12 773.20 102.34 765.85 101.21 C 765.83 97.56 766.09 93.92 766.20 90.28 C 773.48 90.50 780.77 90.38 788.06 90.34 C 795.61 89.96 803.55 96.18 803.66 104.04 C 803.89 110.65 803.93 117.27 803.75 123.88 C 803.59 129.96 800.33 136.12 794.73 138.82 C 789.96 141.62 784.25 140.73 778.99 140.83 C 773.52 140.64 767.99 141.28 762.57 140.46 C 756.37 138.91 750.43 134.04 749.44 127.46 C 748.33 122.04 748.85 116.49 748.77 111.00 C 748.69 96.88 748.92 82.75 748.63 68.64 Z" />
<path fill="#ffffff" opacity="1.00" d=" M 346.34 89.93 C 345.99 81.84 352.68 73.59 361.01 73.40 C 376.25 73.30 391.49 73.55 406.72 73.28 C 406.56 77.13 406.57 80.98 406.71 84.83 C 393.79 84.81 380.88 84.84 367.96 84.80 C 365.25 84.83 362.59 85.31 359.93 85.77 C 359.25 86.89 358.58 88.01 357.89 89.13 C 357.35 101.51 357.81 113.91 357.66 126.30 C 358.54 127.42 359.42 128.53 360.31 129.64 C 375.66 129.85 391.02 129.86 406.37 129.64 C 406.63 133.36 406.68 137.09 406.71 140.82 C 392.48 140.81 378.24 140.86 364.01 140.82 C 360.21 140.94 356.75 139.20 353.39 137.66 C 348.78 135.89 346.65 130.59 346.40 125.98 C 346.34 113.96 346.46 101.95 346.34 89.93 Z" />
<path fill="#ffffff" opacity="1.00" d=" M 602.64 73.63 C 606.37 73.36 610.10 73.32 613.84 73.30 C 613.89 82.59 613.63 91.89 614.01 101.17 C 628.48 101.75 642.99 101.11 657.47 101.50 C 658.06 92.23 657.74 82.92 657.64 73.63 C 661.33 73.37 665.03 73.32 668.74 73.29 C 668.58 95.80 668.59 118.32 668.74 140.83 C 665.02 140.87 661.27 141.04 657.60 140.37 C 657.71 131.15 658.18 121.88 657.38 112.69 C 642.99 113.23 628.55 112.29 614.18 113.18 C 613.36 122.36 614.06 131.60 613.81 140.81 C 610.06 140.87 606.29 141.03 602.59 140.38 C 602.92 132.59 602.70 124.79 602.77 117.00 C 602.71 102.54 602.91 88.08 602.64 73.63 Z" />
<path fill="#ffffff" opacity="1.00" d=" M 559.92 73.86 C 563.63 73.64 567.34 73.64 571.05 73.87 C 571.40 79.41 570.96 84.98 571.52 90.51 C 578.58 90.23 585.65 90.54 592.72 90.28 C 592.56 94.10 592.56 97.92 592.73 101.73 C 585.67 101.54 578.61 101.76 571.56 101.57 C 570.92 107.03 571.30 112.52 571.23 118.00 C 571.27 125.44 571.08 132.89 571.38 140.33 C 567.50 141.30 563.49 141.32 559.61 140.33 C 559.88 133.22 559.72 126.11 559.77 119.00 C 559.69 113.19 560.01 107.37 559.43 101.57 C 554.39 101.70 549.35 101.64 544.31 101.63 C 543.99 97.85 543.96 94.06 544.21 90.28 C 549.29 90.45 554.38 90.34 559.48 90.51 C 560.03 84.97 559.59 79.40 559.92 73.86 Z" />
<path fill="#ffffff" opacity="1.00" d=" M 198.81 90.75 C 206.86 89.90 214.98 90.67 223.06 90.34 C 226.71 90.00 230.02 91.69 233.22 93.18 C 233.24 92.47 233.29 91.03 233.32 90.32 C 239.45 90.59 245.60 90.11 251.72 90.51 C 257.44 91.69 262.72 95.56 265.12 100.95 C 266.79 104.72 266.65 108.93 266.67 112.97 C 266.62 122.21 266.68 131.45 266.62 140.70 C 262.84 140.83 259.06 140.86 255.28 140.81 C 255.45 128.83 255.50 116.83 255.25 104.85 C 255.05 104.27 254.65 103.09 254.46 102.51 C 249.39 101.41 244.19 101.48 239.05 101.88 C 239.51 114.71 238.93 127.55 239.38 140.38 C 235.68 141.04 231.90 140.88 228.16 140.80 C 228.19 131.53 228.11 122.26 228.20 112.99 C 228.28 109.54 227.74 106.12 227.33 102.70 C 220.56 100.81 213.48 102.00 206.57 101.58 C 205.91 107.04 206.31 112.53 206.23 118.00 C 206.28 125.46 206.06 132.92 206.39 140.38 C 202.71 141.02 198.97 140.88 195.25 140.82 C 195.63 125.15 194.88 109.47 195.64 93.82 C 196.72 92.83 197.77 91.80 198.81 90.75 Z" />
<path fill="#ffffff" opacity="1.00" d=" M 278.28 90.28 C 282.10 90.44 285.92 90.43 289.73 90.27 C 289.52 102.28 289.76 114.30 289.61 126.31 C 290.51 127.42 291.41 128.53 292.32 129.64 C 300.34 129.82 308.35 129.86 316.37 129.64 C 316.64 133.36 316.68 137.09 316.71 140.82 C 309.50 140.76 302.30 140.95 295.10 140.78 C 290.24 140.71 285.41 138.36 282.34 134.60 C 280.35 131.40 278.31 127.89 278.36 124.00 C 278.34 112.76 278.52 101.52 278.28 90.28 Z" />
<path fill="#ffffff" opacity="1.00" d=" M 322.28 90.28 C 326.09 90.43 329.91 90.44 333.72 90.29 C 333.46 106.85 333.67 123.43 333.61 139.99 C 333.48 144.31 334.42 149.02 332.01 152.90 C 329.58 158.30 324.41 162.17 318.72 163.50 C 310.92 163.88 303.09 163.36 295.29 163.72 C 295.43 159.87 295.43 156.01 295.29 152.16 C 304.05 152.08 312.83 152.52 321.56 151.57 C 322.14 148.41 322.52 145.21 322.43 142.00 C 322.27 124.76 322.56 107.52 322.28 90.28 Z" />
<path fill="#ffffff" opacity="1.00" d=" M 435.22 90.28 C 442.14 90.52 449.07 90.33 455.99 90.36 C 459.66 90.17 462.89 92.17 465.87 94.05 C 470.50 97.04 472.89 102.64 472.79 108.04 C 472.90 118.96 472.77 129.89 472.83 140.81 C 469.09 140.86 465.31 141.05 461.61 140.37 C 461.88 128.04 461.85 115.69 461.62 103.36 C 459.83 102.66 458.04 101.82 456.10 101.73 C 449.20 101.41 442.29 101.90 435.40 101.56 C 434.72 97.82 434.97 94.04 435.22 90.28 Z" />
<path fill="#ffffff" opacity="1.00" d=" M 493.63 90.63 C 500.74 90.10 507.87 90.53 515.00 90.38 C 519.40 90.46 524.15 89.76 528.18 91.98 C 531.05 93.58 533.69 96.07 534.60 99.33 C 535.98 104.08 536.38 109.07 536.25 114.01 C 536.20 120.25 536.79 126.93 533.71 132.64 C 531.17 138.14 524.78 140.86 518.98 140.81 C 512.64 140.89 506.31 140.81 499.97 140.85 C 495.22 140.94 490.41 139.26 486.74 136.25 C 484.08 133.08 482.25 129.10 481.87 124.96 C 482.01 118.86 485.37 112.62 491.00 109.92 C 494.32 108.05 498.23 107.72 501.98 107.73 C 507.77 107.76 513.57 107.85 519.37 107.65 C 519.63 111.34 519.68 115.04 519.71 118.74 C 511.00 118.88 502.18 117.87 493.57 119.48 C 491.90 122.23 492.38 126.11 494.50 128.51 C 496.84 130.46 500.09 130.31 502.96 130.36 C 510.17 130.24 517.44 130.77 524.58 129.49 C 525.39 127.10 525.91 124.60 525.81 122.06 C 525.72 116.12 525.83 110.19 525.65 104.26 C 524.90 103.35 524.15 102.44 523.41 101.53 C 513.62 100.75 503.78 101.65 493.99 101.01 C 493.79 97.55 493.70 94.09 493.63 90.63 Z" />
<path fill="#ffffff" opacity="1.00" d=" M 681.64 90.63 C 685.33 90.37 689.03 90.32 692.74 90.28 C 692.71 100.53 692.35 110.81 692.95 121.04 C 692.88 125.28 697.40 126.84 700.34 128.82 C 708.60 130.43 717.13 129.79 725.50 129.48 C 725.19 116.42 725.60 103.34 725.28 90.28 C 729.09 90.44 732.91 90.43 736.73 90.27 C 736.54 99.85 736.70 109.43 736.65 119.00 C 736.57 125.00 736.92 131.03 736.30 137.01 C 735.46 138.02 734.64 139.04 733.84 140.07 C 731.28 140.67 728.66 140.95 726.04 140.88 C 719.02 140.77 712.00 140.87 704.98 140.85 C 697.00 141.08 689.27 136.62 684.95 130.01 C 682.58 126.14 681.85 121.50 681.74 117.04 C 681.71 108.23 681.90 99.43 681.64 90.63 Z" />
<path fill="#ffffff" opacity="1.00" d=" M 79.76 114.59 C 83.23 113.75 86.49 115.87 89.21 117.77 C 92.97 121.25 94.79 127.41 92.06 132.04 C 89.87 135.64 86.10 138.34 81.93 139.06 C 76.68 138.84 71.15 135.48 69.68 130.21 C 68.61 127.39 69.12 124.36 69.50 121.47 C 72.68 118.88 75.43 115.20 79.76 114.59 Z" />
<path fill="#ffffff" opacity="1.00" d=" M 157.47 114.66 C 160.45 114.11 163.56 114.12 166.54 114.66 C 170.65 116.08 172.77 120.35 173.95 124.25 C 175.13 127.77 173.26 131.40 171.27 134.23 C 167.57 139.19 160.15 140.10 154.97 137.03 C 152.49 134.54 150.67 131.33 149.79 127.92 C 149.81 122.59 152.05 116.58 157.47 114.66 Z" />
<path fill="#ffffff" opacity="1.00" d=" M 115.65 115.65 C 120.12 113.82 125.63 114.35 129.24 117.73 C 134.13 121.43 135.05 128.87 131.95 133.97 C 128.94 136.62 125.17 138.92 121.06 139.06 C 115.65 138.13 110.76 133.88 109.53 128.47 C 108.59 123.39 112.19 118.90 115.65 115.65 Z" />
</g>
</svg>
