<?xml version="1.0" encoding="UTF-8" standalone="no"?>
<!DOCTYPE svg PUBLIC "-//W3C//DTD SVG 1.1//EN" "http://www.w3.org/Graphics/SVG/1.1/DTD/svg11.dtd">
<svg version="1.1" xmlns="http://www.w3.org/2000/svg" xmlns:xlink="http://www.w3.org/1999/xlink" preserveAspectRatio="xMidYMid meet" viewBox="0 0 415 118.55" width="415" height="118.55"><defs><path d="M90.7 21.54C92.98 23.29 93.05 26.94 90.9 28.81C89.06 30.79 85.62 30.78 83.64 28.99C77.1 23.43 68.6 20.26 59.96 19.63C47.14 18.95 34.38 25.02 26.61 34.86C21.09 42.06 17.63 50.79 17.11 59.78C16.72 76.14 27.92 91.97 43.62 97.84C49.38 100.01 55.69 100.76 61.83 100.06C68.11 99.1 73.86 95.99 80.22 95.37C85.48 94.68 90.81 95.29 96.01 96.07C94.82 92.66 94.2 89.11 93.92 85.53C95.35 84.4 96.59 82.81 98.52 82.51C101.42 82.02 104.35 84.28 104.58 87.12C105.18 91.69 107.17 96.01 109.95 99.72C110.76 100.82 111.65 101.96 111.78 103.34C112.29 106.1 109.85 109.22 106.83 108.93C104.85 109.08 103.06 108.16 101.2 107.69C94.81 106.08 88.2 104.65 81.56 105.41C77.74 105.97 74.1 107.27 70.44 108.44C60.52 111.75 49.49 110.82 39.8 107.23C19.41 99.72 5.05 78.64 6.86 57.41C8.17 43.5 14.95 29.82 26.11 20.83C26.06 20.56 25.96 20.02 25.91 19.75C26.18 19.82 26.71 19.97 26.97 20.04C31.83 16.5 37.17 13.5 43 11.74C59.19 6.62 78.03 10.52 90.7 21.54Z" id="b4kGqEpv2X"></path><path d="M234.99 40.19C234.96 43 234.76 45.82 235.05 48.63C239.43 47.79 243.97 47.98 248.35 48.71C250.53 49.13 252.48 50.99 252.5 53.22C252.6 57.8 252.49 62.39 252.54 66.98C250.8 67.57 249.03 68.1 247.31 68.75C246.57 63.48 247.42 58.14 246.85 52.88C246.19 50.8 243.34 51.44 241.63 51.32C239.54 51.56 236.83 50.64 235.26 52.4C234.45 56.63 235.16 60.97 234.9 65.24C235.25 68.16 231.39 67.87 229.46 68.71C229.35 59.78 229.43 50.84 229.41 41.91C231.18 41.09 233.08 40.63 234.99 40.19Z" id="bctByLLUA"></path><path d="M299.62 40.03C299.6 42.72 299.57 45.42 299.63 48.11C301.97 48.14 304.32 48.08 306.65 48.17C306.12 49.32 305.39 50.36 304.59 51.35C302.92 51.34 301.26 51.35 299.59 51.33C299.61 56.56 299.6 61.78 299.61 67.01C297.84 67.64 296.02 68.12 294.28 68.81C294.23 62.98 294.24 57.15 294.26 51.32C291.82 51.34 289.38 51.35 286.94 51.35C287.72 50.24 288.52 49.14 289.39 48.1C291.02 48.12 292.65 48.13 294.28 48.13C294.23 45.97 294.21 43.8 294.34 41.64C296.11 41.14 297.87 40.6 299.62 40.03Z" id="b4wKYX5jo"></path><path d="M318.7 40.07C318.68 44.31 318.68 48.56 318.7 52.81C324.17 52.83 329.65 52.81 335.13 52.81C335.13 49.18 335.14 45.55 335.11 41.93C336.83 41.07 338.71 40.6 340.58 40.13C340.64 48.92 340.68 57.72 340.57 66.5C339.32 68.07 336.95 68.01 335.17 68.7C335.07 64.48 335.16 60.27 335.13 56.06C329.65 56.05 324.17 56.04 318.68 56.06C318.68 59.7 318.68 63.33 318.7 66.96C316.91 67.58 315.1 68.13 313.3 68.7C313.01 62.15 313.23 55.58 313.16 49.03C313.28 46.54 312.87 43.98 313.6 41.55C315.3 41.08 317 40.57 318.7 40.07Z" id="a1GvLMQ185"></path><path d="M383.33 41.91C385.03 41.09 386.88 40.6 388.71 40.11C388.98 42.87 388.78 45.64 388.84 48.41C393.43 48.03 398.12 47.83 402.65 48.83C404.88 49.43 406.52 51.54 406.36 53.81C406.28 57.1 406.56 60.41 406.18 63.68C405.55 66.98 401.61 67.94 398.64 67.95C394.62 67.79 390.46 68.45 386.57 67.22C384.68 66.62 383.24 64.81 383.35 62.86C383.33 55.87 383.37 48.89 383.33 41.91M388.63 57.41C388.68 59.69 388.39 62.02 389.06 64.25C392.51 65.44 396.25 64.8 399.82 64.73C401.78 62.56 400.56 59.43 400.91 56.83C400.69 55 401.69 51.96 399.11 51.42C396.22 51.2 393.31 51.36 390.41 51.34C390.09 51.49 389.44 51.8 389.12 51.95C388.42 53.7 388.64 55.58 388.63 57.41Z" id="a6c0mrUFd9"></path><path d="M106.8 40.83C111.5 40.96 116.51 40.2 120.85 42.38C125.35 40.21 130.47 40.96 135.29 40.82C138.38 40.91 141.83 40.93 144.37 42.89C145.88 44.03 146.19 46.08 146.22 47.81C146.2 54.2 146.21 60.59 146.21 66.97C144.43 67.59 142.63 68.15 140.84 68.72C140.44 61.34 140.93 53.94 140.54 46.56C140.44 45 138.68 44.07 137.21 44.1C133.87 44 130.53 44.06 127.18 44.09C125.96 43.98 124.98 44.77 123.99 45.34C123.05 52.52 124.15 59.81 123.41 67.01C121.72 67.74 119.96 68.24 118.18 68.71C118.05 61.53 118.21 54.34 118.11 47.16C118.26 45.48 116.62 44.03 114.92 44.11C111.38 44.02 107.83 44.01 104.28 44.12C102.89 44.01 101.89 45.03 101.09 45.97C101.07 52.97 101.08 59.97 101.09 66.97C99.31 67.59 97.51 68.15 95.72 68.72C95.36 62.37 95.67 56.01 95.55 49.66C95.62 47.37 95.33 44.53 97.42 42.93C99.98 40.81 103.62 40.92 106.8 40.83Z" id="dNOpLZzO4"></path><path d="M207.59 40.83C211.07 40.94 215.46 40.99 217.54 44.2C218.17 45.61 218.65 47.39 217.95 48.86C216.51 50.06 214.45 50.1 212.73 50.76C212.66 48.76 213.1 46.58 211.95 44.79C208.2 43.4 204.08 44.32 200.16 44.06C198.12 43.76 195.61 44.88 195.71 47.16C195.66 52.23 195.54 57.32 195.79 62.39C196.18 64.64 198.94 64.85 200.83 64.81C204.51 64.63 208.34 65.33 211.9 64.12C212.79 62.78 212.74 61.16 212.88 59.63C214.65 59.1 216.41 58.59 218.19 58.11C218.14 60.74 218.83 64.09 216.36 65.93C213.63 68.15 209.74 67.94 206.39 67.95C202.08 67.77 197.56 68.54 193.48 66.86C191.22 65.9 190.12 63.52 190.25 61.23C190.23 56.36 190 51.48 190.34 46.63C190.2 44.15 192.35 42.13 194.69 41.54C198.89 40.43 203.3 40.94 207.59 40.83Z" id="c1xamQGmKP"></path><path d="M161.37 47.48C161.83 53.02 161.28 58.59 161.69 64.13C164.97 65.39 168.57 64.58 172 64.81C172.43 64.43 172.84 64.05 173.25 63.65C173.94 58.88 172.95 53.97 173.71 49.24C175.29 48.4 177.1 48.1 178.77 47.48C179.23 54.99 178.85 62.53 178.96 70.06C179.25 72.99 176.23 74.88 173.55 75.11C168.62 75.54 163.67 75.2 158.74 75.35C159.52 74.26 160.32 73.18 161.14 72.13C165.17 71.8 169.4 72.84 173.26 71.44C173.38 70.21 173.48 68.97 173.54 67.73C169.44 67.96 165.28 68.18 161.2 67.7C158.61 67.47 156.05 65.55 155.99 62.89C155.93 58.32 155.93 53.74 155.99 49.17C157.75 48.52 159.56 48.01 161.37 47.48Z" id="c1pTQKH27F"></path><path d="M373.33 47.59C373.41 52.96 373.48 58.34 373.31 63.71C372.77 67 368.79 67.89 365.88 67.94C361.85 67.79 357.67 68.46 353.76 67.22C351.84 66.65 350.36 64.84 350.52 62.85C350.47 58.28 350.52 53.71 350.51 49.14C352.27 48.52 354.06 47.97 355.87 47.48C355.82 52.69 355.94 57.89 355.79 63.09C356.36 63.72 356.81 64.73 357.82 64.73C360.31 64.88 362.82 64.84 365.31 64.77C366.32 64.87 367.09 64.18 367.9 63.72C367.89 58.86 367.89 54.01 367.89 49.15C369.67 48.53 371.49 48.02 373.33 47.59Z" id="bbY07uJ6l"></path><path d="M266.53 48.19C270.35 48 274.25 48.02 278.02 48.74C280.23 49.19 282.02 51.09 282.04 53.32C282.15 57.89 282.15 62.46 282.02 67.02C280.53 67.52 279.03 68 277.52 68.43C276.71 68.12 275.91 67.7 275.01 67.85C271.11 67.87 267.09 68.38 263.27 67.34C261.45 66.86 259.74 65.41 259.68 63.48C259.66 61.26 259.13 58.68 260.73 56.83C262.25 55.18 264.71 54.96 266.85 54.75C270.09 54.71 273.39 54.47 276.57 55.24C276.49 53.9 276.81 51.83 274.95 51.6C271.25 51.01 267.47 51.47 263.74 51.36C264.58 50.25 265.2 48.82 266.53 48.19M264.98 59.17C264.97 60.61 264.96 62.05 264.97 63.49C265.38 63.91 265.8 64.33 266.2 64.75C269.21 64.95 272.24 64.97 275.25 64.79C277.34 63.24 277.3 59.5 275.29 57.88C272.27 57.98 269.25 57.86 266.23 57.94C265.81 58.34 265.39 58.76 264.98 59.17Z" id="b29FUIyeCb"></path><path d="M44.76 64.56C43.31 68.96 36.46 69.72 34.02 65.77C31.42 62.48 33.77 57.24 37.92 56.62C42.37 55.6 46.74 60.45 44.76 64.56Z" id="a3RdzGUz6"></path><path d="M63.92 64.57C62.45 68.97 55.6 69.71 53.17 65.75C50.62 62.46 52.83 57.23 57.04 56.62C61.49 55.61 65.88 60.45 63.92 64.57Z" id="aa3Ne9q2R"></path><path d="M83.27 63.98C82.28 68.75 74.92 69.97 72.36 65.79C69.74 62.5 72.08 57.25 76.26 56.62C80.45 55.69 84.6 59.97 83.27 63.98Z" id="cg5gUVXL4"></path><path d="" id="e1X7VJxB7"></path><path d="" id="a1HvJp4sze"></path></defs><g><g><g><use xlink:href="#b4kGqEpv2X" opacity="1" fill="#ffffff" fill-opacity="1"></use><g><use xlink:href="#b4kGqEpv2X" opacity="1" fill-opacity="0" stroke="#000000" stroke-width="1" stroke-opacity="0"></use></g></g><g><use xlink:href="#bctByLLUA" opacity="1" fill="#ffffff" fill-opacity="1"></use><g><use xlink:href="#bctByLLUA" opacity="1" fill-opacity="0" stroke="#000000" stroke-width="1" stroke-opacity="0"></use></g></g><g><use xlink:href="#b4wKYX5jo" opacity="1" fill="#ffffff" fill-opacity="1"></use><g><use xlink:href="#b4wKYX5jo" opacity="1" fill-opacity="0" stroke="#000000" stroke-width="1" stroke-opacity="0"></use></g></g><g><use xlink:href="#a1GvLMQ185" opacity="1" fill="#ffffff" fill-opacity="1"></use><g><use xlink:href="#a1GvLMQ185" opacity="1" fill-opacity="0" stroke="#000000" stroke-width="1" stroke-opacity="0"></use></g></g><g><use xlink:href="#a6c0mrUFd9" opacity="1" fill="#ffffff" fill-opacity="1"></use><g><use xlink:href="#a6c0mrUFd9" opacity="1" fill-opacity="0" stroke="#000000" stroke-width="1" stroke-opacity="0"></use></g></g><g><use xlink:href="#dNOpLZzO4" opacity="1" fill="#ffffff" fill-opacity="1"></use><g><use xlink:href="#dNOpLZzO4" opacity="1" fill-opacity="0" stroke="#000000" stroke-width="1" stroke-opacity="0"></use></g></g><g><use xlink:href="#c1xamQGmKP" opacity="1" fill="#ffffff" fill-opacity="1"></use><g><use xlink:href="#c1xamQGmKP" opacity="1" fill-opacity="0" stroke="#000000" stroke-width="1" stroke-opacity="0"></use></g></g><g><use xlink:href="#c1pTQKH27F" opacity="1" fill="#ffffff" fill-opacity="1"></use><g><use xlink:href="#c1pTQKH27F" opacity="1" fill-opacity="0" stroke="#000000" stroke-width="1" stroke-opacity="0"></use></g></g><g><use xlink:href="#bbY07uJ6l" opacity="1" fill="#ffffff" fill-opacity="1"></use><g><use xlink:href="#bbY07uJ6l" opacity="1" fill-opacity="0" stroke="#000000" stroke-width="1" stroke-opacity="0"></use></g></g><g><use xlink:href="#b29FUIyeCb" opacity="1" fill="#ffffff" fill-opacity="1"></use><g><use xlink:href="#b29FUIyeCb" opacity="1" fill-opacity="0" stroke="#000000" stroke-width="1" stroke-opacity="0"></use></g></g><g><use xlink:href="#a3RdzGUz6" opacity="1" fill="#ffffff" fill-opacity="1"></use><g><use xlink:href="#a3RdzGUz6" opacity="1" fill-opacity="0" stroke="#000000" stroke-width="1" stroke-opacity="0"></use></g></g><g><use xlink:href="#aa3Ne9q2R" opacity="1" fill="#ffffff" fill-opacity="1"></use><g><use xlink:href="#aa3Ne9q2R" opacity="1" fill-opacity="0" stroke="#000000" stroke-width="1" stroke-opacity="0"></use></g></g><g><use xlink:href="#cg5gUVXL4" opacity="1" fill="#ffffff" fill-opacity="1"></use><g><use xlink:href="#cg5gUVXL4" opacity="1" fill-opacity="0" stroke="#000000" stroke-width="1" stroke-opacity="0"></use></g></g><g><g><use xlink:href="#e1X7VJxB7" opacity="1" fill-opacity="0" stroke="#000000" stroke-width="1" stroke-opacity="1"></use></g></g><g><g><use xlink:href="#a1HvJp4sze" opacity="1" fill-opacity="0" stroke="#000000" stroke-width="1" stroke-opacity="1"></use></g></g></g></g></svg>